<svg width="14" height="11" viewBox="0 0 14 11" fill="none" xmlns="http://www.w3.org/2000/svg">
<path d="M10.6899 5.00504L8.43409 2.7493C8.14119 2.45641 8.14119 1.98153 8.43409 1.68864C8.70035 1.42237 9.11702 1.39817 9.41063 1.61602L9.49475 1.68864L13.0303 5.22417L13.0988 5.30297L13.1394 5.36234L13.1885 5.45661L13.2213 5.54841L13.2372 5.61622L13.2461 5.6781L13.2498 5.77172L13.2461 5.83091L13.2305 5.92486L13.2 6.02413L13.1536 6.12268L13.1188 6.17837C13.0932 6.21576 13.0636 6.25148 13.0303 6.28484L13.0988 6.20604C13.0778 6.23388 13.0549 6.26021 13.0303 6.28484L9.49475 9.82037C9.20185 10.1133 8.72698 10.1133 8.43409 9.82037C8.16782 9.5541 8.14361 9.13744 8.36147 8.84383L8.43409 8.75971L10.6899 6.50504L6.99995 6.50451C3.34847 6.50451 0.867431 4.42787 0.754008 1.46745L0.749949 1.25451C0.749949 0.840292 1.08574 0.504505 1.49995 0.504505C1.91416 0.504505 2.24995 0.840292 2.24995 1.25451C2.24995 3.38337 3.94196 4.91239 6.74233 5.00049L6.99995 5.00451L10.6899 5.00504L8.43409 2.7493L10.6899 5.00504Z" fill="#757575"/>
</svg>
